<svg height="512" viewBox="0 0 64 64" width="512" xmlns="http://www.w3.org/2000/svg"><rect fill="#394d5c" height="40" rx="2" width="58" x="3" y="11"/><path d="m3 47h58a0 0 0 0 1 0 0v2a2 2 0 0 1 -2 2h-54a2 2 0 0 1 -2-2v-2a0 0 0 0 1 0 0z" fill="#aabece"/><path d="m8 3h48v44h-48z" fill="#f4f4e6"/><path d="m27 51h10l4 6h-18z" fill="#7d8d9c"/><path d="m16 57h32v4h-32z" fill="#aabece"/><path d="m8 3h32v8h-32z" fill="#aabece" transform="matrix(-1 0 0 -1 48 14)"/><path d="m12 15h40v16h-40z" fill="#195c85"/><path d="m19 28h-3a1 1 0 0 1 -1-1v-8a1 1 0 0 1 1-1h3a3 3 0 0 1 2.234 5 3 3 0 0 1 -2.234 5zm-2-2h2a1 1 0 0 0 0-2h-2zm0-4h2a1 1 0 0 0 0-2h-2z" fill="#fcf05a"/><path d="m29 28h-4a1 1 0 0 1 -1-1v-8a1 1 0 0 1 2 0v7h3a1 1 0 0 1 0 2z" fill="#fcf05a"/><path d="m36 28h-1a3 3 0 0 1 -3-3v-4a3 3 0 0 1 3-3h1a3 3 0 0 1 3 3v4a3 3 0 0 1 -3 3zm-1-8a1 1 0 0 0 -1 1v4a1 1 0 0 0 1 1h1a1 1 0 0 0 1-1v-4a1 1 0 0 0 -1-1z" fill="#fcf05a"/><path d="m46 28h-2a3 3 0 0 1 -3-3v-4a3 3 0 0 1 3-3h2a3 3 0 0 1 3 3 1 1 0 0 1 -1 1 1 1 0 0 1 1 1v2a3 3 0 0 1 -3 3zm-2-8a1 1 0 0 0 -1 1v4a1 1 0 0 0 1 1h2a1 1 0 0 0 1-1v-1h-1a1 1 0 0 1 0-2h2a1 1 0 0 1 -1-1 1 1 0 0 0 -1-1z" fill="#fcf05a"/><path d="m12 35h16v8h-16z" fill="#2d75bb"/><g fill="#394d5c"><path d="m31 34h9v2h-9z"/><path d="m42 34h11v2h-11z"/><path d="m31 38h6v2h-6z"/><path d="m39 38h8v2h-8z"/><path d="m49 38h4v2h-4z"/><path d="m31 42h11v2h-11z"/><path d="m44 42h9v2h-9z"/><path d="m11 6h14v2h-14z"/><path d="m27 6h2v2h-2z"/></g><path d="m40 3h16v8h-16z" fill="#7d8d9c" transform="matrix(-1 0 0 -1 96 14)"/><path d="m51 6h2v2h-2z" fill="#55b56a"/><path d="m47 6h2v2h-2z" fill="#f9bb4b"/><path d="m43 6h2v2h-2z" fill="#e1462b"/></svg>