<svg id="Capa_1" enable-background="new 0 0 496.125 496.125" height="512" viewBox="0 0 496.125 496.125" width="512" xmlns="http://www.w3.org/2000/svg"><g><path d="m447.844 109.816c13.169 0 23.845 10.676 23.845 23.845v312.314h-447.254v-312.314c0-13.169 10.676-23.845 23.845-23.845z" fill="#5f99d7"/><path d="m115.391 109.816h-67.111c-13.169 0-23.845 10.676-23.845 23.845v312.314h67.11v-312.314c0-13.169 10.676-23.845 23.846-23.845z" fill="#3c87d0"/><path d="m79.862 109.816h336.4v253.833h-336.4z" fill="#3c87d0"/><path d="m441.69 143.707v253.377c0 2.149-1.742 3.892-3.892 3.892h-379.472c-2.149 0-3.892-1.742-3.892-3.892v-253.377c0-2.149 1.742-3.892 3.892-3.892h379.473c2.149.001 3.891 1.743 3.891 3.892z" fill="#dff6fd"/><path d="m91.545 139.816h-33.219c-2.149 0-3.892 1.742-3.892 3.892v253.376c0 2.149 1.742 3.892 3.892 3.892h33.219z" fill="#c8effe"/><g><path d="m469.18 468.588h-442.235c-14.881 0-26.945-12.063-26.945-26.945v-6.258c0-2.436 1.974-4.41 4.41-4.41h487.305c2.436 0 4.41 1.974 4.41 4.41v6.258c0 14.882-12.064 26.945-26.945 26.945z" fill="#7bacdf"/><path d="m87.503 441.643v-6.258c0-2.436 1.974-4.41 4.41-4.41h-87.503c-2.436 0-4.41 1.974-4.41 4.41v6.258c0 14.881 12.064 26.945 26.945 26.945h87.503c-14.881 0-26.945-12.063-26.945-26.945z" fill="#5f99d7"/><path d="m79.862 139.816h336.4v261.16h-336.4z" fill="#99e6fc"/><path d="m396.262 400.975v-305.301c0-7.01-5.68-12.69-12.69-12.69h-271.02c-7.01 0-12.69 5.68-12.69 12.69v305.302h296.4z" fill="#dff6fd"/><path d="m197.037 164.926h17.346l11.873 11.872c5.825 5.825 13.569 9.032 21.807 9.032s15.981-3.207 21.808-9.033l11.871-11.871h17.346c27.393 0 49.679-22.286 49.679-49.679v-32.263h-201.409v32.263c0 27.393 22.286 49.679 49.679 49.679z" fill="#c8effe"/><path d="m299.088 27.537h-102.051c-16.391 0-29.678 13.287-29.678 29.678v58.033c0 16.391 13.287 29.678 29.678 29.678h25.631l17.729 17.729c4.233 4.233 11.097 4.233 15.331 0l17.729-17.729h25.631c16.391 0 29.678-13.287 29.678-29.678v-58.033c0-16.391-13.287-29.678-29.678-29.678z" fill="#f37c7c"/><g><path d="m205.867 120.095v-62.867c0-13.383 7.55-24.852 18.285-29.692h-27.115c-16.391 0-29.678 13.287-29.678 29.678v58.033c0 16.391 13.287 29.678 29.678 29.678h19.655c-6.61-5.896-10.825-14.829-10.825-24.83z" fill="#ee6161"/></g><path d="m253.132 121.998 27.487-27.487c7.935-7.935 7.935-20.801 0-28.737-7.935-7.935-20.801-7.935-28.737 0l-3.456 3.456-4.189-4.025c-7.978-7.665-20.623-7.539-28.447.284l-.285.285c-7.935 7.935-7.935 20.801 0 28.737l27.487 27.487c2.801 2.8 7.34 2.8 10.14 0z" fill="#f3f0f3"/><circle cx="184.626" cy="237.336" fill="#c8effe" r="47.717"/><g><path d="m355.762 244.836h-89.348c-4.142 0-7.5-3.357-7.5-7.5s3.358-7.5 7.5-7.5h89.348c4.142 0 7.5 3.357 7.5 7.5s-3.358 7.5-7.5 7.5z" fill="#c8effe"/></g><g><path d="m167.358 337.153h-11.598c-4.142 0-7.5-3.357-7.5-7.5s3.358-7.5 7.5-7.5h11.599c4.142 0 7.5 3.357 7.5 7.5s-3.359 7.5-7.501 7.5z" fill="#c8effe"/></g><g><path d="m341.365 337.153h-11.599c-4.142 0-7.5-3.357-7.5-7.5s3.358-7.5 7.5-7.5h11.599c4.142 0 7.5 3.357 7.5 7.5s-3.358 7.5-7.5 7.5z" fill="#c8effe"/></g><g><path d="m301.466 337.153h-107.218c-4.142 0-7.5-3.357-7.5-7.5s3.358-7.5 7.5-7.5h107.218c4.142 0 7.5 3.357 7.5 7.5s-3.358 7.5-7.5 7.5z" fill="#c8effe"/></g></g><path d="m355.762 400.975v-31.578c0-3.175-2.574-5.749-5.749-5.749h-203.901c-3.175 0-5.749 2.574-5.749 5.749v31.578z" fill="#c8effe"/></g></svg>