<svg height="512pt" viewBox="-11 0 512 512" width="512pt" xmlns="http://www.w3.org/2000/svg"><path d="m464.539062 375.835938c16.289063-32.789063 25.460938-69.738282 25.460938-108.835938 0-135.308594-109.691406-245-245-245s-245 109.691406-245 245c0 39.097656 9.171875 76.046875 25.460938 108.835938zm0 0" fill="#2b3894"/><path d="m24.964844 257.59375v117.242188c39.886718 81.238281 123.425781 137.164062 220.035156 137.164062s180.148438-55.925781 220.035156-137.164062v-117.238282h-440.070312zm0 0" fill="#e6f7fe"/><path d="m24.964844 257.59375v117.242188c15.949218 32.484374 38.882812 60.914062 66.835937 83.347656v-200.589844zm0 0" fill="#86fdfb"/><path d="m24.964844 47.027344h440.070312v26.265625h-440.070312zm0 0" fill="#d5f1fe"/><path d="m141.921875 73.292969h-116.957031v-26.265625h92.210937c13.667969 0 24.746094 11.757812 24.746094 26.265625zm0 0" fill="#11dfef"/><path d="m24.964844 47.027344h66.835937v26.265625h-66.835937zm0 0" fill="#0ac6e5"/><path d="m463.691406 0c-8.492187 0-425.023437 0-437.382812 0-.742188 0-1.34375.601562-1.34375 1.34375v47.207031h440.070312v-47.207031c0-.742188-.601562-1.34375-1.34375-1.34375zm0 0" fill="#615df9"/><path d="m103.800781 0c-43.664062 0-74.277343 0-77.492187 0-.742188 0-1.34375.601562-1.34375 1.34375v47.207031h66.835937v-36.550781c0-6.601562 5.402344-12 12-12zm0 0" fill="#3342ae"/><path d="m61.300781 33.808594c-5.507812 0-10-4.488282-10-10 0-4.769532 3.351563-8.859375 8.050781-9.8125 6.117188-1.230469 11.949219 3.472656 11.949219 9.8125 0 5.554687-4.542969 10-10 10zm0 0" fill="#f948b4"/><path d="m91.800781 33.808594c-5.429687 0-10-4.421875-10-10 0-6.324219 5.816407-11.046875 11.949219-9.8125 4.84375.984375 8.050781 5.214844 8.050781 9.8125 0 5.507812-4.488281 10-10 10zm0 0" fill="#fecd0a"/><path d="m122.300781 33.808594c-5.429687 0-10-4.421875-10-10 0-6.355469 5.84375-11.042969 11.949219-9.8125 4.84375.984375 8.050781 5.21875 8.050781 9.8125 0 5.507812-4.488281 10-10 10zm0 0" fill="#39df74"/><path d="m436.140625 31.773438h-52.667969c-4.144531 0-7.5-3.359376-7.5-7.5 0-4.140626 3.355469-7.5 7.5-7.5h52.667969c4.140625 0 7.5 3.359374 7.5 7.5 0 4.140624-3.359375 7.5-7.5 7.5zm0 0" fill="#aeaeff"/><path d="m345.792969 31.773438h-183.847657c-4.140624 0-7.5-3.359376-7.5-7.5 0-4.140626 3.359376-7.5 7.5-7.5h183.847657c4.144531 0 7.5 3.359374 7.5 7.5 0 4.140624-3.355469 7.5-7.5 7.5zm0 0" fill="#aeaeff"/><path d="m306.445312 24.273438c0-4.140626 3.359376-7.5 7.5-7.5h-152c-4.140624 0-7.5 3.359374-7.5 7.5 0 4.144531 3.359376 7.5 7.5 7.5h152c-4.140624 0-7.5-3.355469-7.5-7.5zm0 0" fill="#8181fc"/><path d="m24.964844 73.292969h440.070312v193.796875h-440.070312zm0 0" fill="#4fbbff"/><path d="m24.964844 267.089844h221.640625c2.160156-6.953125.761719-14.058594-9.097657-19.128906-26.75-13.75 14-32.25-13-43.25-15.140624-6.167969-17.394531-17.214844-16.449218-25.730469.65625-5.925781-3.664063-11.183594-9.597656-11.789063-24.828126-2.53125-28.910157-20.246094-29.152344-30.488281-.105469-4.257813-2.664063-8.105469-6.625-9.667969-41.167969-16.222656-20.761719-53.742187-20.761719-53.742187h-116.957031zm0 0" fill="#27a3ff"/><path d="m465.035156 267.089844v-133.765625c-13.714844 8.742187-31.882812 16.726562-53.140625 17.332031-6.332031 10.628906-17.941406 17.769531-31.191406 17.769531-21.863281 0-39.003906-19.363281-35.929687-41.328125-11.820313-8.8125-41.867188-36.976562-89.164063-36.515625-54.761719.53125-82.90625 38.707031-97.113281 48.492188 0 0-64.710938 57.636719-133.53125.855469v127.160156zm0 0" fill="#27a3ff"/><path d="m237.507812 247.960938c-26.75-13.75 14-32.25-13-43.25-15.140624-6.167969-17.394531-17.214844-16.449218-25.730469.65625-5.925781-3.664063-11.183594-9.597656-11.789063-24.828126-2.53125-28.910157-20.246094-29.15625-30.488281-.046876-1.945313-.609376-3.804687-1.585938-5.402344-3.582031 3.265625-6.636719 5.992188-9.222656 7.773438 0 0-64.710938 57.636719-133.53125.855469v127.160156h221.640625c2.160156-6.953125.761719-14.058594-9.097657-19.128906zm0 0" fill="#0080f4"/><path d="m465.035156 267.089844v-59.320313l-25.917968-25.921875c-10.164063-10.160156-26.640626-10.160156-36.800782 0l-18.050781 18.054688c-4.441406 4.441406-11.644531 4.441406-16.082031 0l-74.371094-74.371094c-11.226562-11.226562-29.429688-11.226562-40.65625 0l-95.816406 95.816406c-3.695313 3.695313-9.6875 3.695313-13.378906 0l-21.753907-21.75c-11.566406-11.566406-30.316406-11.566406-41.882812 0l-55.359375 55.359375v12.132813zm0 0" fill="#a2ec00"/><path d="m237.507812 247.960938c-26.75-13.75 14-32.25-13-43.25-15.140624-6.167969-17.394531-17.214844-16.449218-25.730469.273437-2.480469-.332032-4.839844-1.554688-6.792969l-49.164062 49.160156c-3.695313 3.695313-9.6875 3.695313-13.378906 0l-21.753907-21.753906c-11.566406-11.5625-30.316406-11.5625-41.882812 0l-55.359375 55.363281v12.132813h221.640625c2.160156-6.953125.761719-14.058594-9.097657-19.128906zm0 0" fill="#00c82f"/><path d="m465.035156 267.089844v-47.960938c-26.273437 25.871094-68.246094 46.691406-122.167968 5.160156-142.679688-109.894531-167.964844 127.597657-317.902344-8.429687v51.230469zm0 0" fill="#00c82f"/><path d="m237.507812 247.960938c-26.148437-13.441407 12.191407-31.421876-11.292968-42.496094-58.792969 29.109375-103.570313 99.011718-201.25 10.394531v51.230469h221.640625c2.160156-6.953125.761719-14.058594-9.097657-19.128906zm0 0" fill="#02ad22"/><path d="m430.835938 293.648438h-371.785157c-3.703125 0-6.703125 3.003906-6.703125 6.707031v50.554687c0 3.703125 3 6.703125 6.703125 6.703125h371.785157c3.703124 0 6.707031-3 6.707031-6.703125v-50.554687c0-3.703125-3.003907-6.707031-6.707031-6.707031zm0 0" fill="#4fbbff"/><path d="m85.347656 350.910156v-50.554687c0-3.703125 3-6.707031 6.703125-6.707031h-33c-3.703125 0-6.703125 3.003906-6.703125 6.707031v50.554687c0 3.703125 3 6.703125 6.703125 6.703125h33c-3.703125 0-6.703125-3-6.703125-6.703125zm0 0" fill="#27a3ff"/><path d="m155.171875 383.910156h-95.398437c-4.085938 0-7.425782 3.339844-7.425782 7.425782v27.039062c28.265625 35.925781 66.375 63.738281 110.25 79.40625v-106.445312c.003906-4.085938-3.339844-7.425782-7.425781-7.425782zm0 0" fill="#fecd0a"/><path d="m91.289062 391.335938c0-4.085938 3.34375-7.425782 7.425782-7.425782h-38.941406c-4.085938 0-7.425782 3.339844-7.425782 7.425782v27.039062c11.453125 14.558594 24.523438 27.78125 38.941406 39.410156zm0 0" fill="#fca60d"/><path d="m115.167969 425.8125h-13.878907c-5.523437 0-10-4.476562-10-10s4.476563-10 10-10h13.878907c5.523437 0 10 4.476562 10 10s-4.476563 10-10 10zm0 0" fill="#fca60d"/><path d="m134.375 467.878906h-29.648438c7.792969 5.449219 15.917969 10.464844 24.339844 15h5.308594c4.144531 0 7.5-3.359375 7.5-7.5 0-4.144531-3.355469-7.5-7.5-7.5zm0 0" fill="#fce395"/><path d="m134.375 440.59375h-52.296875c-2.675781 0-5.023437 1.410156-6.347656 3.523438 4.15625 3.976562 8.457031 7.800781 12.882812 11.476562h45.761719c4.140625 0 7.5-3.355469 7.5-7.5 0-4.140625-3.355469-7.5-7.5-7.5zm0 0" fill="#fce395"/><path d="m292.644531 383.910156h-95.402343c-4.082032 0-7.425782 3.339844-7.425782 7.425782v114.421874c17.738282 4.082032 36.207032 6.242188 55.183594 6.242188 18.9375 0 37.367188-2.152344 55.070312-6.21875v-114.445312c0-4.085938-3.339843-7.425782-7.425781-7.425782zm0 0" fill="#fecd0a"/><path d="m228.761719 391.335938c0-4.085938 3.339843-7.425782 7.425781-7.425782h-38.945312c-4.082032 0-7.425782 3.339844-7.425782 7.425782v114.421874c12.632813 2.910157 25.648438 4.820313 38.945313 5.691407zm0 0" fill="#fca60d"/><path d="m252.636719 425.8125h-13.875c-5.523438 0-10-4.476562-10-10s4.476562-10 10-10h13.875c5.523437 0 10 4.476562 10 10s-4.476563 10-10 10zm0 0" fill="#fca60d"/><path d="m271.847656 482.878906h-52.296875c-4.140625 0-7.5-3.359375-7.5-7.5 0-4.144531 3.359375-7.5 7.5-7.5h52.296875c4.140625 0 7.5 3.355469 7.5 7.5 0 4.140625-3.359375 7.5-7.5 7.5zm0 0" fill="#fce395"/><path d="m271.847656 455.59375h-52.296875c-4.140625 0-7.5-3.355469-7.5-7.5 0-4.140625 3.359375-7.5 7.5-7.5h52.296875c4.140625 0 7.5 3.359375 7.5 7.5 0 4.144531-3.359375 7.5-7.5 7.5zm0 0" fill="#fce395"/><path d="m437.542969 418.511719v-27.175781c0-4.085938-3.34375-7.429688-7.429688-7.429688h-95.398437c-4.085938 0-7.425782 3.34375-7.425782 7.429688v106.484374c43.867188-15.640624 81.972657-43.417968 110.253907-79.308593zm0 0" fill="#fecd0a"/><path d="m366.230469 391.335938c0-4.085938 3.34375-7.425782 7.425781-7.425782h-38.941406c-4.082032 0-7.425782 3.339844-7.425782 7.425782v106.484374c13.574219-4.839843 26.59375-10.84375 38.941407-17.886718zm0 0" fill="#fca60d"/><path d="m390.109375 425.8125h-13.878906c-5.519531 0-10-4.476562-10-10s4.480469-10 10-10h13.878906c5.523437 0 10 4.476562 10 10s-4.476563 10-10 10zm0 0" fill="#fca60d"/><path d="m357.023438 467.878906c-4.144532 0-7.5 3.355469-7.5 7.5 0 4.140625 3.355468 7.5 7.5 7.5h3.910156c8.421875-4.535156 16.546875-9.550781 24.339844-15zm0 0" fill="#fce395"/><path d="m409.316406 440.59375h-52.292968c-4.144532 0-7.5 3.359375-7.5 7.5 0 4.144531 3.355468 7.5 7.5 7.5h44.363281c4.722656-3.921875 9.292969-8.019531 13.707031-12.28125-1.375-1.660156-3.449219-2.71875-5.777344-2.71875zm0 0" fill="#fce395"/><path d="m312.726562 194.273438h-138.214843c-2.617188 0-4.738281 2.121093-4.738281 4.738281v16.28125c0 2.617187 2.121093 4.738281 4.738281 4.738281h138.214843zm0 0" fill="#e6f7fe"/><path d="m215.882812 215.292969v-16.28125c0-2.617188 2.121094-4.738281 4.734376-4.738281h-46.105469c-2.617188 0-4.738281 2.121093-4.738281 4.738281v16.28125c0 2.617187 2.121093 4.738281 4.738281 4.738281h46.105469c-2.613282 0-4.734376-2.121094-4.734376-4.738281zm0 0" fill="#86fdfb"/><path d="m333.230469 194.273438h-22.503907v25.757812h22.503907c2.613281 0 4.734375-2.121094 4.734375-4.738281v-16.28125c0-2.617188-2.121094-4.738281-4.734375-4.738281zm0 0" fill="#f948b4"/><path d="m418.539062 132.136719c0 20.898437-16.941406 37.835937-37.835937 37.835937s-37.835937-16.9375-37.835937-37.835937c0-20.894531 16.941406-37.835938 37.835937-37.835938s37.835937 16.941407 37.835937 37.835938zm0 0" fill="#fecd0a"/><path d="m375.332031 94.6875c-18.351562 2.609375-32.464843 18.375-32.464843 37.449219 0 36.511719 46.722656 51.703125 68.308593 22.425781-33.71875 4.792969-55.347656-33.417969-35.84375-59.875zm0 0" fill="#fca60d"/></svg>