<?xml version="1.0" encoding="iso-8859-1"?>
<!-- Generator: Adobe Illustrator 19.0.0, SVG Export Plug-In . SVG Version: 6.00 Build 0)  -->
<svg version="1.1" id="Capa_1" xmlns="http://www.w3.org/2000/svg" xmlns:xlink="http://www.w3.org/1999/xlink" x="0px" y="0px"
	 viewBox="0 0 512.002 512.002" style="enable-background:new 0 0 512.002 512.002;" xml:space="preserve">
<path style="fill:#F4F4F4;" d="M45.47,23.631c0,64.03-4.493,128.259-1.706,192.23c2.467,56.613-1.365,113.6-1.365,170.238
	c0,11.579-1.298,22.786-1.865,34.232c-0.616,12.423,2.261,15.986,13.517,20.662c11.414,4.741,23.25,5.257,35.572,5.683
	c29.56,1.023,59.137-1.898,88.682,0.035c32.158,2.104,65.036-4.045,97.122-5.492c8.829-0.398,12.366-1.305,13.104-11.146
	c1.13-15.065,0.105-32.026-0.628-47.22c-1.789-37.043-1.379-73.953-1.09-111.13c0.171-22.076,2.975-44.165,3.081-66.313
	c0.134-27.97,0.115-56.037,0.016-83.96c-0.027-7.588-1.571-15.455-0.518-23.055c1.918-13.844,6.668-27.796,21.234-30.698
	c13.65-2.72,28.226,1.286,41.918,0.171c17.755-1.446,17.273-14.33,16.503-29.934c-0.322-6.519,0.068-12.213-5.986-14.301
	c-4.771-1.646-12.113,0.561-17.03,0.641c-8.716,0.141-17.382-0.164-26.15,0.001c-18.508,0.347-37.177-0.644-55.721-0.644
	c-22.263,0-44.94,1.165-67.148-0.448c-39.704-2.884-79.122-6.946-119-6.921C69.58,16.267,51.72,14.485,45.47,23.631z"/>
<path style="fill:#B7B7B7;" d="M500.517,128.028c0,57.412-6.863,114.772-2.591,171.98c0.884,11.841,1.846,23.638,2.636,35.485
	c0.749,11.226,3.934,21.812,4.485,32.891c0.685,13.771,2.078,27.524,2.237,41.317c0.16,13.933-1.443,27.714-2.946,41.539
	c-1.602,14.733-4.053,35.077-21.555,37.86c-13.953,2.218-30.391,2.41-44.448,1.889c-24.366-0.903-48.974,0.53-73.177-0.495
	c-18.671-0.79-37.269-2.504-55.795-4.598c-11.579-1.308-19.633-4.555-22.719-16.873c-2.959-11.812-1.167-25.913-1.062-38.034
	c0.093-10.718,0.642-21.573,1.092-32.268c0.842-20.023,0.673-40.069,0.442-60.103c-0.2-17.326-2.356-34.544-1.984-51.677
	c0.853-39.366,4.801-78.67,3.487-118.073c-0.527-15.791-1.763-31.612-1.143-47.447c0.464-11.849-3.349-29.84,4.207-40.219
	c7.6-10.439,17.311-11.679,28.893-10.627c15.597,1.416,31.769,0.342,47.43,0.342c17.101,0,34.202,0.552,51.303,0.222
	c14.57-0.281,26.704-3.03,41.363-1.45c7.528,0.811,18.703,0.006,25.488,3.461C501.788,81.107,499.7,119.845,500.517,128.028z"/>
<path style="fill:#F4F4F4;" d="M320.586,109.605c0,48.529-3.75,97.181-2.792,145.589c0.676,34.176,3.488,67.849,2.127,102.069
	c-0.551,13.844-1.291,27.671-2.993,41.324c-1.289,10.34,5.85,15.858,15.173,18.798c18.483,5.83,38.231,1.764,57.127,1.725
	c14.794-0.03,29.427,0.541,44.189-0.023c12.894-0.492,29.444,3.209,38.098-9.652c6.546-9.727,3.243-28.205,4.269-39.737
	c2.589-29.107,2.56-58.016,1.09-87.238c-1.28-25.436-3.686-50.84-6.002-76.154c-2.575-28.146,4.096-57.064-0.162-85.021
	c-0.766-5.03-1.561-17.487-5.863-21.156c-2.494-2.128-6.848-1.281-10.028-1.555c-18.91-1.626-36.527,0.194-55.292,1.066
	c-12.522,0.582-24.833,1.204-37.33,2.456c-10.428,1.045-20.843,0.661-31.302,0.753C326.053,102.892,321.148,102.266,320.586,109.605
	z"/>
<path style="fill:#727272;" d="M383.224,447.973c0.534,8.474-3.418,17.087,5.197,22.19c6.793,4.024,16.765,4.054,23.529,0.361
	c14.22-7.763,8.049-32.428-6.844-36.39C393.41,431.022,386.249,438.076,383.224,447.973z"/>
<g>
	<path style="fill:#71D182;" d="M386.909,338.663c-8.237,1.643-13.664,18.396-12.894,25.929c0.881,8.612,9.765,11.658,17.501,13.321
		c19.101,4.107,34.978-16.531,23.01-33.125C408.545,336.495,395.447,335.27,386.909,338.663z"/>
	<path style="fill:#71D182;" d="M353.748,279.71c-13.891,8.046-13.165,20.607,3.207,24.715c17.007,4.267,35.524,4.13,53.151,4.148
		c11.209,0.012,34.564,0.701,39.593-11.531c7.87-19.145-15.707-16.717-27.261-16.717c-12.079,0-23.952-0.614-35.991-0.614
		C377.564,279.71,362.797,277.29,353.748,279.71z"/>
	<path style="fill:#71D182;" d="M353.748,236.109c-13.891,8.046-13.165,20.607,3.207,24.715c17.007,4.267,35.524,4.13,53.151,4.148
		c11.209,0.012,34.564,0.701,39.593-11.531c7.87-19.145-15.707-16.717-27.261-16.717c-12.079,0-23.952-0.614-35.991-0.614
		C377.564,236.109,362.797,233.689,353.748,236.109z"/>
	<path style="fill:#71D182;" d="M353.748,193.122c-13.891,8.046-13.165,20.607,3.207,24.715c17.007,4.267,35.524,4.13,53.151,4.148
		c11.209,0.012,34.564,0.701,39.593-11.531c7.87-19.145-15.707-16.717-27.261-16.717c-12.079,0-23.952-0.614-35.991-0.614
		C377.564,193.122,362.797,190.702,353.748,193.122z"/>
</g>
<path style="fill:#FFDC0F;" d="M113.021,65.39c-4.684,11.104-0.649,25.965,0.562,37.495c0.729,6.943-0.089,12.906,6.801,16.239
	c10.508,5.082,26.683,4.037,38.012,4.62c11.834,0.609,23.976,1.168,35.749,0c7.079-0.702,19.13-0.77,25.422-4.615
	c8.137-4.972,10.726-16.272,10.747-25.2c0.016-6.701,0.232-17.639-2.92-23.64c-3.906-7.436-17.189-7.937-24.869-8.734
	c-19.577-2.031-39.416-2.469-59.108-3.54C137.386,57.687,105.422,54.739,113.021,65.39z"/>
<path style="fill:#FF8225;" d="M96.031,226.693c-4.853,10.62-3.306,25.223,9.238,27.961c12.391,2.704,24.642,3.943,37.225,2.141
	c10.353-1.483,19.636-4.421,19.05-16.515c-0.195-4.032-0.364-10.824-2.702-14.37c-3.32-5.034-13.745-5.384-19.28-6.186
	c-7.656-1.109-15.74-0.406-23.383,0.307C108.37,220.759,100.396,221.237,96.031,226.693z"/>
<path style="fill:#FF3535;" d="M98.897,331.908c-2.437,11.131-2.348,31.099,5.481,40.328c5.801,6.839,16.017,4.365,23.982,4.264
	c10.985-0.139,21.75-1.261,32.715-2.138c6.707-0.536,20.807,0.807,25.235-5.316c4.855-6.713,0.487-20.648-0.732-28.076
	c-2.017-12.285-4.891-16.196-18.392-16.844c-14.323-0.687-28.469,1.679-42.776,1.642
	C118.501,325.753,100.098,324.478,98.897,331.908z"/>
<g>
	<path style="fill:#FFDC0F;" d="M68.601,309.391c-6.375-0.672-14.931,0.463-21.475,1.199c-9.904,1.114-21.758,1.688-31.17,5.202
		c-8.041,3.002-11.649,11.227-10.214,19.621c1.717,10.042,12.809,10.528,21.062,9.784c11.103-1.001,22.277-1.593,33.361-2.749
		c5.514-0.575,13.833-1.046,18.29-4.862C87.817,329.57,79.725,301.353,68.601,309.391z"/>
	<path style="fill:#FFDC0F;" d="M68.601,370.801c-6.375-0.672-14.931,0.463-21.475,1.199c-9.904,1.114-21.758,1.688-31.17,5.202
		c-8.041,3.002-11.649,11.227-10.214,19.621c1.717,10.042,12.809,10.528,21.062,9.784c11.103-1.001,22.277-1.594,33.361-2.749
		c5.514-0.575,13.833-1.046,18.29-4.863C87.817,390.98,79.725,362.763,68.601,370.801z"/>
	<path style="fill:#FFDC0F;" d="M68.601,248.8c-6.375-0.672-14.931,0.463-21.475,1.199c-9.904,1.114-21.758,1.688-31.17,5.202
		c-8.041,3.002-11.649,11.227-10.214,19.621c1.717,10.042,12.809,10.528,21.062,9.784c11.103-1.001,22.277-1.594,33.361-2.749
		c5.514-0.575,13.833-1.046,18.29-4.862C87.817,268.979,79.725,240.762,68.601,248.8z"/>
	<path style="fill:#FFDC0F;" d="M68.601,188.209c-6.375-0.672-14.931,0.463-21.475,1.199c-9.904,1.114-21.758,1.688-31.17,5.202
		c-8.041,3.002-11.649,11.227-10.214,19.621c1.717,10.042,12.809,10.528,21.062,9.784c11.103-1.001,22.277-1.593,33.361-2.749
		c5.514-0.575,13.833-1.046,18.29-4.862C87.817,208.388,79.725,180.171,68.601,188.209z"/>
	<path style="fill:#FFDC0F;" d="M68.601,127.618c-6.375-0.672-14.931,0.463-21.475,1.199c-9.904,1.114-21.758,1.688-31.17,5.202
		c-8.041,3.002-11.649,11.227-10.214,19.621c1.717,10.042,12.809,10.528,21.062,9.784c11.103-1.001,22.277-1.594,33.361-2.749
		c5.514-0.575,13.833-1.046,18.29-4.862C87.817,147.797,79.725,119.58,68.601,127.618z"/>
	<path style="fill:#FFDC0F;" d="M68.601,67.027c-6.375-0.672-14.931,0.463-21.475,1.199c-9.904,1.114-21.758,1.688-31.17,5.202
		C7.914,76.43,4.306,84.656,5.742,93.05c1.717,10.042,12.809,10.528,21.062,9.784c11.103-1.001,22.277-1.594,33.361-2.749
		c5.514-0.575,13.833-1.046,18.29-4.862C87.817,87.206,79.725,58.989,68.601,67.027z"/>
</g>
<path d="M511.311,405.433c-1.932-24.244-1.009-49.295-1.022-73.63c-0.013-24.501-1.863-48.77-2.434-73.222
	c-0.661-28.294-0.283-56.743,0.032-85.043c0.259-23.268-3.95-46.51-5.267-69.71c-1.089-19.197-4.283-33.201-25.084-37.411
	c-25.897-5.241-50.939,2.663-76.432-0.022c-6.258-0.659-15.287,0.192-21.041-1.931c-9.122-3.366-4.322-13.163-3.825-22.427
	c0.28-5.22,0.135-13.995-2.635-18.748c-3.609-6.191-10.928-6.567-17.245-6.253c-8.214,0.408-15.865,0.348-24.075-0.246
	c-21.676-1.568-43.613,0.513-65.216-1.35c-19.318-1.666-39.042-1.842-58.436-1.927c-43.362-0.191-86.517-6.184-129.88-2.999
	c-8.593,0.631-35.545-2.1-40.306,8.198c-2.464,5.33-0.277,12.178-0.21,17.615c0.123,9.879-0.98,19.147,0.795,28.825
	c-2.684,0.189-5.409,0.426-8.218,0.72c-9.277,0.969-23.374-0.849-28.057,9.411c-3.121,6.839-4.422,21.362,0.641,27.488
	c7.622,9.224,23.678,6.109,34.123,5.306c0.079,0.94,0.158,1.896,0.195,2.92c0.12,3.33-0.392,6.514,0.068,9.853
	c0.206,1.493,0.528,3.252,1.074,4.907c-2.628,0.188-5.295,0.419-8.044,0.706c-9.277,0.969-23.374-0.849-28.057,9.411
	c-3.121,6.839-4.422,21.362,0.641,27.488c7.862,9.515,24.719,5.893,35.112,5.23c0.455-0.029,0.93-0.049,1.398-0.073
	c-0.007,1.311,0.096,2.667,0.139,4.002c0.145,4.508,0.978,8.947,0.723,13.449c-0.005,0.088,0.013,0.162,0.011,0.248
	c-3.245,0.201-6.546,0.479-9.967,0.836c-9.277,0.969-23.374-0.849-28.057,9.411c-3.121,6.839-4.422,21.361,0.641,27.488
	c7.862,9.515,24.719,5.893,35.115,5.23c-0.341,5.549,0.418,11.045,0.598,16.711c0.011,0.342,0.058,0.682,0.127,1.016
	c-2.75,0.191-5.544,0.434-8.425,0.735c-9.277,0.969-23.374-0.849-28.057,9.411c-3.121,6.839-4.422,21.362,0.641,27.488
	c7.569,9.16,23.457,6.151,33.906,5.322c-0.491,4.399-0.753,8.995-0.578,13.354c0.062,1.537,0.194,3.033,0.522,4.432
	c-2.111,0.166-4.243,0.354-6.435,0.583c-9.277,0.969-23.374-0.849-28.057,9.411c-3.121,6.839-4.422,21.362,0.641,27.488
	c7.412,8.971,22.814,6.266,33.263,5.372c-0.189,3.708,0.322,7.626,0.141,11.2c-0.116,2.293-0.066,4.439,0.079,6.565
	c-1.992,0.161-4.003,0.339-6.067,0.555c-9.277,0.969-23.374-0.849-28.057,9.411c-3.121,6.839-4.422,21.362,0.641,27.488
	c7.441,9.006,22.931,6.246,33.382,5.363c-2.157,13.732-3.64,32.91,12.65,36.307c9.739,2.031,21.481,1.521,31.459,2.129
	c13.338,0.812,26.915,1.919,40.293,1.78c26.421-0.274,53.217,1.335,79.538-0.53c25.607-1.815,52.412,0.341,77.789-3.529
	c-0.13,4.953-0.329,9.909-0.656,14.93c-0.513,7.86-0.98,17.682,5.321,23.425c5.205,4.744,12.285,5.097,18.912,6.039
	c11.541,1.641,23.038,3.587,34.593,5.197c22.644,3.155,45.632,3.109,68.438,4.312c22.223,1.172,44.847,2.242,67-0.216
	c18.15-2.013,28.907-7.454,33.641-26.119C511.396,452.569,513.124,428.186,511.311,405.433z M38.507,96.473
	c-7.8,0.504-24.206,4.823-26.624-4.645c-2.596-10.167,5.164-13.564,13.328-14.161c13.908-1.016,28.29-2.367,42.122-4.329
	c8.201,1.16,7.36,14.798,1.368,19.214C61.992,97.497,46.645,95.947,38.507,96.473z M38.507,157.064
	c-7.8,0.504-24.206,4.823-26.624-4.645c-2.596-10.167,5.164-13.564,13.328-14.161c13.908-1.016,28.29-2.367,42.122-4.329
	c8.201,1.161,7.36,14.798,1.368,19.214C61.992,158.088,46.645,156.538,38.507,157.064z M38.507,217.655
	c-7.8,0.504-24.206,4.823-26.624-4.645c-2.596-10.167,5.164-13.563,13.328-14.16c13.908-1.016,28.29-2.367,42.122-4.329
	c8.201,1.16,7.36,14.798,1.368,19.214C61.992,218.679,46.645,217.129,38.507,217.655z M11.883,273.601
	c-2.596-10.167,5.164-13.564,13.328-14.16c13.908-1.016,28.29-2.367,42.122-4.329c8.201,1.16,7.36,14.798,1.368,19.214
	c-6.709,4.945-22.056,3.395-30.194,3.921C30.707,278.75,14.301,283.069,11.883,273.601z M11.883,334.192
	c-2.596-10.167,5.164-13.564,13.328-14.161c13.908-1.016,28.29-2.367,42.122-4.329c8.201,1.16,7.36,14.798,1.368,19.214
	c-6.709,4.945-22.056,3.395-30.194,3.921C30.707,339.341,14.301,343.66,11.883,334.192z M38.507,399.428
	c-7.8,0.504-24.206,4.823-26.624-4.645c-2.596-10.167,5.164-13.564,13.328-14.16c5.02-0.367,10.106-0.798,15.201-1.264
	c1.624,0.655,3.664,0.434,5.282-0.49c7.266-0.723,14.525-1.566,21.639-2.575c8.201,1.16,7.36,14.798,1.368,19.214
	C61.992,400.452,46.645,398.902,38.507,399.428z M284.124,105.055c-1.078,12.438-1.222,24.657-0.63,37.124
	c1.139,23.995-1.332,48.418-1.421,72.464c-0.089,24.27-1.06,48.481-1.596,72.722c-1.044,47.142-1.941,94.565-1.784,141.722
	c0.008,2.607,0.004,5.192-0.013,7.769c-20.491-3.08-42.262,0.967-62.902,1.553c-21.772,0.619-43.494,0.971-65.321,1.001
	c-21.832,0.03-43.29-0.478-65.073-1.534c-9.054-0.439-19.317-0.085-28.274-1.61c-8.11-1.381-9.348-2.435-10.19-10.613
	c-0.514-5.002-0.493-9.999-0.872-14.977c11.006-0.26,23.796-0.487,32.233-6.715c7.697-5.682,7.986-21.803,5.557-29.986
	c-2.51-8.458-10.37-9.761-18.13-8.879c-5.707,0.65-11.29,1.543-16.835,2.563c-0.122,0.002-0.246,0.008-0.368,0.011
	c-0.183-2.09-0.416-4.155-0.414-5.966c0.004-3.956-0.153-7.846-1.031-11.643c10.771-0.255,23.041-0.652,31.221-6.691
	c7.697-5.682,7.986-21.803,5.557-29.986c-2.51-8.457-10.37-9.761-18.13-8.878c-5.707,0.649-11.29,1.543-16.835,2.563
	c-0.03,0-0.061,0.002-0.091,0.003c-0.028-0.19-0.044-0.377-0.09-0.572c-1.293-5.53-0.756-11.354-1.259-17.038
	c10.681-0.257,22.762-0.713,30.849-6.682c7.697-5.682,7.986-21.803,5.557-29.986c-2.51-8.457-10.37-9.761-18.13-8.878
	c-5.239,0.596-10.368,1.413-15.465,2.33c0.29-1.428,0.338-2.957,0.188-4.343c-0.363-3.35-1.322-6.357-1.362-9.778
	c-0.013-1.118-0.005-2.21-0.006-3.296c10.262-0.276,21.542-0.972,29.219-6.639c7.697-5.682,7.986-21.803,5.557-29.986
	c-2.51-8.458-10.37-9.761-18.13-8.879c-4.551,0.518-9.012,1.219-13.448,1.987c-0.008-5.22-0.907-10.627-1.776-15.753
	c-0.065-0.385-0.154-0.848-0.269-1.354c9.947-0.302,20.676-1.151,28.066-6.606c7.697-5.682,7.986-21.803,5.557-29.986
	c-2.51-8.457-10.37-9.761-18.13-8.878c-5.382,0.612-10.651,1.453-15.886,2.401c0.107-3.453-0.891-6.824-0.822-10.386
	c0.048-2.465-0.161-4.781-0.525-7.086c10.416-0.266,21.983-0.882,29.805-6.656c7.697-5.682,7.986-21.803,5.557-29.986
	c-2.51-8.457-10.37-9.761-18.13-8.878c-5.707,0.649-11.29,1.543-16.835,2.563c-0.471,0.007-0.948,0.03-1.42,0.041
	c1.088-6.665,1.058-13.371,1.613-20.148c0.164-2.01-0.828-16.569-0.013-20.31c0.51,0.618,3.871-0.094,4.537-0.068
	c3.529,0.134,7.384-0.851,10.954-1.054c9.343-0.53,18.71-1.304,28.068-1.6c35.594-1.127,71.107,2.729,106.661,3.849
	c34.712,1.094,69.361,2.71,104.075,2.69c15.332-0.009,30.588,2.128,45.897,1.7c6.901-0.193,13.621-3.112,14.39,5.651
	c0.583,6.651,2.391,18.558-0.784,24.635c-4.571,8.747-22.525,3.794-31.906,3.326c-15.194-0.758-35.371-2.304-42.362,14.121
	C284.951,86.073,284.913,95.958,284.124,105.055z M497.721,449.344c-1.219,9.807-1.545,26.918-9.17,34.489
	c-6.386,6.341-20.05,5.12-28.115,5.219c-10.542,0.131-20.96,1.452-31.501,0.999c-20.379-0.875-40.739-1.974-61.103-3.053
	c-20.314-1.076-39.972-3.62-60.072-6.817c-3.024-0.481-7.414-0.267-10.192-1.424c-6.566-2.734-7.94-9.951-7.552-16.585
	c0.569-9.746,0.963-19.102,0.81-28.918c-0.306-19.603,0.79-39.195,0.775-58.821c-0.016-21.724-1.181-43.768,0.361-65.432
	c2.94-41.324,2.764-83.635,2.879-125.087c0.061-21.847-0.663-43.938,0.245-65.74c0.412-9.891-0.909-30.635,5.451-38.377
	c6.397-7.785,28.289-4.667,37.011-3.85c10.806,1.012,21.606-0.584,32.395,0.154c10.16,0.696,20.284,1.891,30.507,1.845
	c23.81-0.106,47.206,1.027,71.002-0.195c0.1-0.005,0.185-0.03,0.281-0.041c5.867,0.412,12.683,1.249,15.293,4.664
	c4.453,5.826,3.151,18.214,3.73,25.552c1.503,19.059,4.781,38.501,5.03,57.609c0.273,20.888-0.069,41.823-0.126,62.716
	c-0.059,21.718,1.15,43.119,2.037,64.789c0.884,21.591,0.085,43.206,0.452,64.803c0.344,20.258,1.59,40.516,1.904,60.737
	C500.211,428.852,498.986,439.165,497.721,449.344z"/>
<path d="M476.682,139.082c-0.434-12.039,3.138-33.589-8.384-41.693c-12.683-8.92-35.213-4.597-49.687-4.729
	c-23.228-0.214-46.586-0.253-69.941,0.117c-7.729,0.122-15.47,0.269-23.141,1.309c-8.171,1.107-10.702,0.321-10.771,9.194
	c-0.445,4.219-0.285,8.588-0.056,12.901c-0.009,9.288,0.075,18.566,0.29,27.852c-0.162,6.808-0.443,13.612-0.83,20.366
	c-0.708,12.35-1.492,24.765-0.51,37.196c0.372,4.719,1.13,9.999,1.766,15.398c0.177,8.266,0.167,16.533,0.066,24.801
	c-0.019,0.082-0.03,0.169-0.049,0.251c-0.164,0.72-0.129,1.368,0.027,1.95c-0.303,21.304-1.168,42.61-1.018,63.911
	c0.118,16.894-0.302,33.709-1.119,50.535c-0.398,8.201-0.519,16.42-0.903,24.624c-0.339,7.263-1.283,16.645,1.327,23.643
	c3.617,9.698,14.28,13.816,23.691,15.618c14.51,2.777,28.979,2.784,43.6,2.971c16.531,0.211,32.98-1.625,49.5-1.237
	c7.395,0.174,14.367-0.51,21.724-0.999c5.823-0.387,13.111,0.941,18.498-1.92c9.904-5.261,9.382-20.245,10.296-29.78
	c1.817-18.96,2.335-38.869,1.428-57.818C479.382,268.715,479.016,203.908,476.682,139.082z M470.237,395.637
	c-1.107,10.549-2.708,16.295-13.708,16.625c-6.098,0.184-12.141,1.467-18.242,1.662c-15.089,0.481-30.195-0.356-45.213,0.578
	c-7.054,0.438-13.826,0.465-20.863-0.151c-5.117-0.447-9.923,0.721-15.067,0.497c-5.77-0.251-14.861-1.629-20.488-3.077
	c-12.647-3.253-14.215-12.716-14.047-24.397c0.425-29.445,1.537-58.693,1.045-88.228c-0.344-20.661,0.335-41.281,0.507-61.915
	c0.637-6.005,0.187-12.167-0.046-18.231c-0.03-2.39-0.052-4.78-0.11-7.171c0.093-14.197-1.189-28.371-0.201-42.614
	c0.793-11.437,1.081-23.016,1.181-34.496c0.067-7.737-4.96-24.814,4.091-28.982c2.906-1.338,6.22-1.367,9.419-1.372
	c32.914-0.052,65.767-0.527,98.669-1.01c9.988-0.147,22.569-2.066,28.003,8.971c1.775,3.604,0.137,10.649,0.227,14.678
	c0.089,4.043,0.671,8.036,0.823,12.076c2.096,55.471,1.912,110.958,4.672,166.397C472.382,335.442,473.378,365.702,470.237,395.637z
	"/>
<path d="M411.484,433.375c-14.214-10.051-36.864,9.087-34.862,24.855c1.859,14.641,17.456,22.298,30.526,17.722
	c14.336-5.02,18.314-21.468,12.078-33.634C417.461,438.876,414.88,435.777,411.484,433.375z M406.32,466.069
	c-7.524,4.109-16.597,2.367-20.535-5.866c-2.79-5.834,0.38-13.077,5.525-17.291c0.751-0.182,1.508-0.489,2.517-0.989
	c1.968-0.975,3.558-1.89,5.033-2.405c0.179-0.021,0.356-0.064,0.536-0.076c0.47-0.032,0.881-0.149,1.242-0.321
	c1.839-0.162,3.665,0.571,6.042,2.961C413.427,448.868,416.019,460.772,406.32,466.069z"/>
<path d="M439.793,190.345c-9.792-1.441-20.099-0.073-29.955,0.052c-4.795,0.061-9.592,0.027-14.384,0.078
	c-8.387-0.478-16.828-0.757-25.22-0.932c-6.723-0.14-15.574-1.795-21.886,1.258c-7.176,3.471-12.172,16.116-7.549,23.35
	c5.317,8.318,26.306,7.566,34.553,8.371c18.302,1.788,37.294,1.865,55.634,0.466c12.687-0.968,22.161-4.214,23.822-18.227
	C456.102,193.843,449.493,191.773,439.793,190.345z M447.168,205.401c-0.925,12.856-22.223,10.573-30.941,10.924
	c-11.207,0.452-22.604-0.007-33.802-0.541c-5.522-0.264-11.003-0.987-16.491-1.618c-4.719-0.543-13.179,0.189-17.211-2.762
	c-4.251-5.616-2.081-10.561,6.509-14.836c2.719,0.173,5.441,0.231,8.166,0.173c5.727,0.077,11.436,0.185,17.162,0.342
	c20.669,0.569,41.155,1.484,61.824,0.655C445.424,198.9,447.478,201.081,447.168,205.401z"/>
<path d="M439.793,233.946c-9.792-1.441-20.099-0.073-29.955,0.052c-4.795,0.061-9.592,0.027-14.384,0.078
	c-8.387-0.478-16.828-0.757-25.22-0.932c-6.723-0.14-15.574-1.795-21.886,1.258c-7.176,3.47-12.172,16.116-7.549,23.35
	c5.317,8.318,26.306,7.566,34.553,8.371c18.302,1.788,37.294,1.865,55.634,0.466c12.687-0.968,22.161-4.215,23.822-18.227
	C456.102,237.444,449.493,235.374,439.793,233.946z M447.168,249.002c-0.925,12.857-22.223,10.573-30.941,10.924
	c-11.207,0.452-22.604-0.007-33.802-0.541c-5.522-0.264-11.003-0.986-16.491-1.618c-4.719-0.543-13.179,0.189-17.211-2.762
	c-4.251-5.616-2.081-10.561,6.509-14.836c2.719,0.173,5.441,0.23,8.166,0.173c5.727,0.077,11.436,0.185,17.162,0.342
	c20.669,0.569,41.155,1.484,61.824,0.656C445.424,242.501,447.478,244.682,447.168,249.002z"/>
<path d="M439.793,277.547c-9.792-1.441-20.099-0.073-29.955,0.052c-4.795,0.061-9.592,0.027-14.384,0.078
	c-8.387-0.478-16.828-0.757-25.22-0.932c-6.723-0.14-15.574-1.795-21.886,1.258c-7.176,3.47-12.172,16.116-7.549,23.35
	c5.317,8.318,26.306,7.565,34.553,8.371c18.302,1.788,37.294,1.865,55.634,0.466c12.687-0.968,22.161-4.214,23.822-18.227
	C456.102,281.045,449.493,278.975,439.793,277.547z M447.168,292.603c-0.925,12.856-22.223,10.573-30.941,10.924
	c-11.207,0.452-22.604-0.007-33.802-0.541c-5.522-0.263-11.003-0.986-16.491-1.618c-4.719-0.543-13.179,0.189-17.211-2.762
	c-4.251-5.616-2.081-10.561,6.509-14.836c2.719,0.173,5.441,0.231,8.166,0.173c5.727,0.077,11.436,0.185,17.162,0.342
	c20.669,0.569,41.155,1.484,61.824,0.655C445.424,286.102,447.478,288.283,447.168,292.603z"/>
<path d="M395.693,332.829c-13.285,0.974-27.31,15.94-24.287,29.033c0.043,3.678,1.266,7.506,4.068,11.334
	c11.245,15.365,36.048,10.588,44.457-5.269C429.285,350.289,414.601,331.442,395.693,332.829z M411.82,367.106
	c-6.611,8.834-21.817,11.728-29.867,3.229c-5.171-5.46-5.472-12.14-3.02-18.098c0.651-1.212,1.473-2.431,2.6-3.694
	c4.329-4.852,8.543-8.876,15.402-8.898C411.679,339.597,421.114,354.686,411.82,367.106z"/>
<path d="M109.525,96.841c0.033,1.462,0.079,2.919,0.097,4.385c0.076,6.332-0.626,13.263,3.545,18.635
	c8.229,10.597,32.015,8.358,43.704,8.648c18.683,0.464,39.245,1.771,57.635-2.102c15.409-3.245,18.61-17.947,19.42-31.84
	c0.768-13.183-0.531-28.443-14.495-33.156c-18.057-6.094-40.199-4.274-59.01-4.202c-10.719,0.041-21.425-0.618-32.132-0.566
	c-4.69,0.023-13.925-0.305-17.548,3.23c-2.795,2.727-2.79,6.574-2.749,10.21C108.092,79.045,108.864,87.926,109.525,96.841z
	 M117.376,67.05c6.312-6.673,25.182-2.153,33.645-2.148c13.569,0.008,27.056,0.117,40.611,0.609
	c7.252,0.263,15.182,0.01,22.205,2.18c11.626,3.592,12.873,14.276,12.629,24.436c-0.143,5.96-0.33,14.043-3.334,19.185
	c-4.932,8.445-15.971,9.094-24.894,9.401c-12.356,0.425-24.67,0.695-37.037,0.556c-11.704-0.132-37.174,2.284-44.155-9.276
	c-0.925-1.533-1.26-3.916-1.341-6.575c0.183-0.38,0.303-0.817,0.31-1.339c0.016-1.32-0.074-2.876-0.214-4.568
	c0.128-2.964,0.284-5.788,0.067-7.777c-0.671-6.162-1.003-12.23-1.179-18.356C115.149,70.759,115.968,68.539,117.376,67.05z"/>
<path d="M117.875,208.943c1.12,1.57,3.391,2.62,5.201,1.364c2.629-1.825,4.473-4.358,7.043-6.303
	c3.059-2.315,6.474-3.382,9.213-6.064c2.35-2.301-0.039-6.558-3.249-5.581c-4.451,1.355-7.41,3.565-10.327,6.036
	c-0.292-9.033-3.343-18.583,10.84-22.333c4.515-1.194,10.222,0.209,14.974-0.373c4.456-0.545,9.967-1.239,14.215-2.822
	c17.002-6.334,16.264-25.184,13.637-40.011c-0.548-3.089-4.952-2.074-5.165,0.699c-0.908,11.87,2.576,26.123-11.092,31.952
	c-9.318,3.974-19.516,1.939-29.17,3.189c-6.738,0.873-11.818,4.059-14.26,10.633c-1.364,3.672-1.52,7.912-1.693,11.798
	c-0.078,1.748,0.32,4.496,0.452,7.088c-2.022-2.611-3.875-5.742-5.893-7.569c-2.506-2.27-7.59-0.102-6.186,3.601
	C108.635,200.095,114.272,203.891,117.875,208.943z"/>
<path d="M123.007,260.226c19.507,0.308,43.06,0.814,42.131-24.668c-0.752-20.626-19.645-20.223-36.069-17.36
	c-6.893-0.291-13.778-0.243-20.476,0.504c-9.214,1.027-16.228,4.326-18.077,13.972c-1.278,6.664-2.249,17.591,3.5,22.635
	C100.215,260.748,115.487,260.107,123.007,260.226z M149.835,225.318c3.817,1.464,6.658,4.01,7.535,8.441
	c4.135,20.896-22.782,19.646-36.673,18.987c-4.009-0.19-12.067,0.227-15.799-1.542c-4.299-2.038-7.35-6.731-7.455-10.974
	C96.867,216.913,136.639,226.008,149.835,225.318z"/>
<path d="M233.837,239.869c-8.061-4.815-19.558-4.689-28.568-5.133c-9.651-0.476-20.898-0.391-30.069,2.904
	c-0.702,0.252-0.916,1.037-0.423,1.604c2.327,2.676,5.812,2.544,9.187,2.65c8.56,0.271,16.909-0.307,25.493,0.373
	c13.387,1.06,25.128,1.505,28.106,18.174c1.259,7.042,0.951,14.972,0.731,22.064c-0.448,14.501,0.305,29.252-0.775,43.657
	c-0.829,11.056,0.495,15.679-12.738,16.611c-3.497,0.246-7.837,0.603-11.917,0.622c1.435-2.493,3.086-4.973,4.254-7.419
	c2.018-4.224-3.539-7.44-6.241-3.649c-2.824,3.964-11.988,10.164-11.071,16.034c0.788,5.048,10.748,11.462,13.876,15.328
	c2.711,3.35,8.68-1.183,6.028-4.651c-1.154-1.509-5.527-5.024-8.657-8.03c5.882,0.269,12.264-0.178,17.796-0.554
	c6.87-0.467,12.044-1.861,14.533-8.846c2.371-6.656,2.335-15.972,2.266-23.041c-0.109-11.374-0.054-22.789,0.277-34.2
	C246.345,269.809,248.392,248.564,233.837,239.869z"/>
<path d="M187.628,329.511c-0.247-1.007-0.835-1.579-1.531-1.853c-1.366-2.282-3.37-4.016-6.264-4.714
	c-5.542-1.335-13.035,0.619-18.695,0.759c-8.898,0.22-17.818-0.008-26.713-0.217c-8.587-0.202-17.208,0.157-25.743,1.103
	c-4.692,0.52-9.654,0.55-12.867,4.665c-6.591,8.441-3.059,29.812-0.959,39.374c2.188,9.966,5.799,12.842,15.674,12.342
	c16.908-0.856,33.856-0.178,50.746-1.71c9.618-0.872,23.782-1.046,27.54-11.758c1.616-4.604,0.983-10.237,0.787-15.007
	C189.286,344.719,189.491,337.132,187.628,329.511z M182.39,358.243c-2.292,14.614-18.124,13.117-29.34,13.871
	c-10.278,0.691-20.62,0.821-30.923,0.993c-10.492,0.176-18.702,2.544-20.459-10.561c-0.57-4.255-0.975-8.571-1.181-12.856
	c-0.321-6.625-1.301-10.481,4.157-14.705c7.925-6.134,21.9-4.381,31.763-4.105c9.113,0.256,18.281,0.451,27.396,0.223
	c3.102-0.077,9.605-1.838,12.379-0.821c6.997,2.566,5.831,12.14,6.52,18.003c0.052,0.444,0.233,0.807,0.46,1.124
	C183.053,352.535,182.81,355.564,182.39,358.243z"/>
<path d="M199.827,279.685c-15.187-3.906-32.174-1.037-47.732-1.975c-16.608-1.001-33.438,1.354-49.924-0.054
	c-2.978-0.254-3.655,4.652-0.709,5.24c15.586,3.109,32.537,0.907,48.383,1.885c15.634,0.965,34.615,2.978,49.981-0.543
	C202.114,283.714,202.038,280.254,199.827,279.685z"/>
<path d="M199.827,299.337c-15.187-3.906-32.174-1.037-47.732-1.975c-16.608-1.001-33.438,1.354-49.924-0.054
	c-2.978-0.254-3.655,4.652-0.709,5.24c15.586,3.109,32.537,0.907,48.383,1.885c15.634,0.965,34.615,2.978,49.981-0.543
	C202.114,303.365,202.038,299.905,199.827,299.337z"/>
<path d="M259.791,177.827c-14.658,0.185-29.309,0.566-43.966,0.625c-6.69,0.027-13.382-0.147-20.072,0.01
	c-5.155,0.121-13.238-0.621-18.039,1.431c-3.236,1.384-1.613,3.766,0.354,4.47c-0.079-0.028,3.382-0.425,3.959-0.429
	c4.048-0.032,8.204,0.584,12.266,0.701c7.177,0.207,14.355,0.201,21.532,0.23c14.537,0.058,29.494,0.457,43.966-1.012
	C263.566,183.47,263.748,177.777,259.791,177.827z"/>
<path d="M259.791,194.203c-14.658,0.185-29.309,0.566-43.966,0.625c-6.69,0.027-13.382-0.147-20.072,0.01
	c-5.155,0.121-13.238-0.622-18.039,1.431c-3.236,1.384-1.613,3.766,0.354,4.47c-0.079-0.028,3.382-0.425,3.959-0.429
	c4.048-0.031,8.204,0.584,12.266,0.701c7.177,0.207,14.355,0.201,21.532,0.23c14.537,0.058,29.494,0.457,43.966-1.012
	C263.566,199.846,263.748,194.153,259.791,194.203z"/>
<path d="M259.791,210.579c-14.658,0.185-29.309,0.566-43.966,0.625c-6.69,0.027-13.382-0.147-20.072,0.01
	c-5.155,0.121-13.238-0.621-18.039,1.431c-3.236,1.384-1.613,3.765,0.354,4.47c-0.079-0.028,3.382-0.425,3.959-0.429
	c4.048-0.032,8.204,0.584,12.266,0.702c7.177,0.207,14.355,0.201,21.532,0.23c14.537,0.058,29.494,0.457,43.966-1.012
	C263.566,216.222,263.748,210.529,259.791,210.579z"/>
<g>
</g>
<g>
</g>
<g>
</g>
<g>
</g>
<g>
</g>
<g>
</g>
<g>
</g>
<g>
</g>
<g>
</g>
<g>
</g>
<g>
</g>
<g>
</g>
<g>
</g>
<g>
</g>
<g>
</g>
</svg>
